<svg xmlns="http://www.w3.org/2000/svg" viewBox="0 0 512 512" role="img" aria-labelledby="title desc">
  <title id="title">Codex Context Brief Builder Icon</title>
  <desc id="desc">A document transforming into a compact code context brief.</desc>
  <rect width="512" height="512" rx="112" fill="#102033"/>
  <rect x="92" y="72" width="216" height="288" rx="28" fill="#F7F1E5"/>
  <path d="M250 72v72c0 16 13 29 29 29h29" fill="#E7D8BC"/>
  <path d="M250 72l58 101" fill="none" stroke="#102033" stroke-width="10" stroke-linecap="round" opacity=".16"/>
  <rect x="126" y="148" width="114" height="14" rx="7" fill="#4E637A" opacity=".72"/>
  <rect x="126" y="184" width="144" height="14" rx="7" fill="#4E637A" opacity=".45"/>
  <rect x="126" y="220" width="112" height="14" rx="7" fill="#4E637A" opacity=".45"/>
  <rect x="126" y="256" width="152" height="14" rx="7" fill="#4E637A" opacity=".45"/>
  <rect x="126" y="292" width="92" height="14" rx="7" fill="#4E637A" opacity=".45"/>
  <path d="M304 250h52" stroke="#63D4D8" stroke-width="18" stroke-linecap="round"/>
  <path d="M340 214l42 45-42 45" fill="none" stroke="#63D4D8" stroke-width="18" stroke-linecap="round" stroke-linejoin="round"/>
  <rect x="286" y="286" width="150" height="130" rx="26" fill="#172B43" stroke="#63D4D8" stroke-width="8"/>
  <path d="M330 329l-24 22 24 22M392 329l24 22-24 22" fill="none" stroke="#F7F1E5" stroke-width="14" stroke-linecap="round" stroke-linejoin="round"/>
  <path d="M368 319l-26 66" fill="none" stroke="#F0B957" stroke-width="14" stroke-linecap="round"/>
  <circle cx="112" cy="96" r="12" fill="#F0B957"/>
  <circle cx="400" cy="112" r="10" fill="#63D4D8" opacity=".8"/>
  <circle cx="422" cy="238" r="8" fill="#F0B957" opacity=".9"/>
</svg>
